<?xml version="1.0" encoding="UTF-8" standalone="no"?>
<svg
   xmlns:dc="http://purl.org/dc/elements/1.1/"
   xmlns:cc="http://creativecommons.org/ns#"
   xmlns:rdf="http://www.w3.org/1999/02/22-rdf-syntax-ns#"
   xmlns:svg="http://www.w3.org/2000/svg"
   xmlns="http://www.w3.org/2000/svg"
   xmlns:sodipodi="http://sodipodi.sourceforge.net/DTD/sodipodi-0.dtd"
   xmlns:inkscape="http://www.inkscape.org/namespaces/inkscape"
   viewBox="0.0 0.0 348.0 348.0"
   fill="none"
   version="1.1"
   id="svg26"
   sodipodi:docname="Numbering.svg"
   inkscape:version="1.0.1 (3bc2e813f5, 2020-09-07)">
  <metadata
     id="metadata32">
    <rdf:RDF>
      <cc:Work
         rdf:about="">
        <dc:format>image/svg+xml</dc:format>
        <dc:type
           rdf:resource="http://purl.org/dc/dcmitype/StillImage" />
        <dc:title />
      </cc:Work>
    </rdf:RDF>
  </metadata>
  <defs
     id="defs30" />
  <sodipodi:namedview
     pagecolor="#ffffff"
     bordercolor="#666666"
     borderopacity="1"
     objecttolerance="10"
     gridtolerance="10"
     guidetolerance="10"
     inkscape:pageopacity="0"
     inkscape:pageshadow="2"
     inkscape:window-width="1366"
     inkscape:window-height="705"
     id="namedview28"
     showgrid="false"
     inkscape:zoom="0.5"
     inkscape:cx="340.69311"
     inkscape:cy="-129.39571"
     inkscape:window-x="-8"
     inkscape:window-y="-8"
     inkscape:window-maximized="1"
     inkscape:current-layer="svg26"
     inkscape:document-rotation="0" />
  <rect
     style="fill:#b18173;fill-opacity:1;stroke:none;stroke-opacity:1"
     id="rect904"
     width="198.50511"
     height="191.18695"
     x="85.988388"
     y="73.352066" />
  <g
     aria-label="1"
     id="text908"
     style="font-style:normal;font-variant:normal;font-weight:normal;font-stretch:normal;font-size:53.3333px;line-height:0;font-family:'Times New Roman';-inkscape-font-specification:'Times New Roman, Normal';font-variant-ligatures:normal;font-variant-caps:normal;font-variant-numeric:normal;font-variant-east-asian:normal;fill:#000000;fill-opacity:1">
    <g
       id="g851"
       style="opacity:1;fill:#000000;fill-opacity:1">
      <path
         style="color:#000000;font-style:normal;font-variant:normal;font-weight:normal;font-stretch:normal;font-size:medium;line-height:0;font-family:'Times New Roman';-inkscape-font-specification:'Times New Roman, Normal';font-variant-ligatures:normal;font-variant-position:normal;font-variant-caps:normal;font-variant-numeric:normal;font-variant-alternates:normal;font-variant-east-asian:normal;font-feature-settings:normal;font-variation-settings:normal;text-indent:0;text-align:start;text-decoration:none;text-decoration-line:none;text-decoration-style:solid;text-decoration-color:#000000;letter-spacing:normal;word-spacing:normal;text-transform:none;writing-mode:lr-tb;direction:ltr;text-orientation:mixed;dominant-baseline:auto;baseline-shift:baseline;text-anchor:start;white-space:normal;shape-padding:0;shape-margin:0;inline-size:0;clip-rule:nonzero;display:inline;overflow:visible;visibility:visible;isolation:auto;mix-blend-mode:normal;color-interpolation:sRGB;color-interpolation-filters:linearRGB;solid-color:#000000;solid-opacity:1;vector-effect:none;fill:#000000;fill-opacity:1;fill-rule:nonzero;stroke-width:1;stroke-linecap:butt;stroke-linejoin:miter;stroke-miterlimit:4;stroke-dasharray:none;stroke-dashoffset:0;stroke-opacity:1;color-rendering:auto;image-rendering:auto;shape-rendering:auto;text-rendering:auto;enable-background:accumulate;stop-color:#000000;stop-opacity:1;stroke:none"
         d="m 65.095024,41.65277 8.593745,-4.192706 h 0.859375 v 29.81769 c 0,1.979166 0.07813,3.211804 0.234374,3.697915 0.173611,0.486111 0.520833,0.859374 1.041666,1.119791 0.520833,0.260417 1.579861,0.407986 3.177082,0.442708 v 0.963541 H 65.720024 v -0.963541 c 1.666665,-0.03472 2.743054,-0.173609 3.229165,-0.416667 0.486111,-0.260416 0.824652,-0.598957 1.015624,-1.015624 0.190972,-0.434027 0.286458,-1.710068 0.286458,-3.828123 V 48.215266 c 0,-2.569443 -0.0868,-4.218748 -0.260416,-4.947914 -0.121528,-0.555555 -0.347222,-0.963541 -0.677083,-1.223958 -0.3125,-0.260416 -0.694444,-0.390624 -1.145833,-0.390624 -0.642361,0 -1.536457,0.269097 -2.68229,0.807291 z"
         id="path853" />
      <path
         style="color:#000000;font-style:normal;font-variant:normal;font-weight:normal;font-stretch:normal;font-size:medium;line-height:0;font-family:'Times New Roman';-inkscape-font-specification:'Times New Roman, Normal';font-variant-ligatures:normal;font-variant-position:normal;font-variant-caps:normal;font-variant-numeric:normal;font-variant-alternates:normal;font-variant-east-asian:normal;font-feature-settings:normal;font-variation-settings:normal;text-indent:0;text-align:start;text-decoration:none;text-decoration-line:none;text-decoration-style:solid;text-decoration-color:#000000;letter-spacing:normal;word-spacing:normal;text-transform:none;writing-mode:lr-tb;direction:ltr;text-orientation:mixed;dominant-baseline:auto;baseline-shift:baseline;text-anchor:start;white-space:normal;shape-padding:0;shape-margin:0;inline-size:0;clip-rule:nonzero;display:inline;overflow:visible;visibility:visible;isolation:auto;mix-blend-mode:normal;color-interpolation:sRGB;color-interpolation-filters:linearRGB;solid-color:#000000;solid-opacity:1;vector-effect:none;fill-opacity:1;fill-rule:nonzero;stroke-width:1;stroke-linecap:butt;stroke-linejoin:miter;stroke-miterlimit:4;stroke-dasharray:none;stroke-dashoffset:0;stroke-opacity:1;color-rendering:auto;image-rendering:auto;shape-rendering:auto;text-rendering:auto;enable-background:accumulate;stop-color:#000000;stop-opacity:1;stroke:none;fill:#000000"
         d="M 73.574219 36.960938 L 64.427734 41.421875 L 64.644531 41.871094 L 65.25 43.123047 L 65.697266 42.912109 C 66.810555 42.389201 67.665248 42.152344 68.167969 42.152344 C 68.523204 42.152344 68.772596 42.243114 68.994141 42.427734 L 68.998047 42.431641 L 69.003906 42.435547 C 69.221482 42.607317 69.397121 42.89577 69.501953 43.375 L 69.503906 43.378906 L 69.503906 43.382812 C 69.646866 43.983245 69.751953 45.656662 69.751953 48.214844 L 69.751953 67.277344 C 69.751953 68.328857 69.727847 69.167664 69.681641 69.785156 C 69.635591 70.400544 69.543193 70.818547 69.507812 70.900391 C 69.368581 71.202813 69.124625 71.455003 68.720703 71.673828 C 68.428866 71.818839 67.350274 72.004871 65.708984 72.039062 L 65.220703 72.048828 L 65.220703 74.001953 L 79.501953 74.001953 L 79.501953 72.048828 L 79.011719 72.039062 C 77.440471 72.004905 76.392798 71.821399 76.046875 71.648438 C 75.619523 71.434761 75.388052 71.17145 75.257812 70.810547 C 75.16225 70.507169 75.048828 69.236875 75.048828 67.277344 L 75.048828 36.960938 L 73.574219 36.960938 z M 73.804688 37.960938 L 74.048828 37.960938 L 74.048828 67.277344 C 74.048828 69.269668 74.089897 70.454591 74.306641 71.128906 L 74.308594 71.136719 L 74.3125 71.144531 C 74.529866 71.753153 74.987346 72.236837 75.599609 72.542969 C 76.195184 72.840756 77.245451 72.914811 78.501953 72.966797 L 78.501953 73.001953 L 66.220703 73.001953 L 66.220703 72.970703 C 67.5226 72.923059 68.586988 72.860806 69.171875 72.568359 L 69.179688 72.566406 L 69.185547 72.5625 C 69.745478 72.262537 70.178437 71.841329 70.419922 71.314453 L 70.421875 71.310547 L 70.421875 71.306641 C 70.577736 70.952411 70.628455 70.519877 70.677734 69.861328 C 70.727014 69.202779 70.751953 68.343885 70.751953 67.277344 L 70.751953 48.214844 C 70.751953 45.636125 70.68046 44.014669 70.476562 43.15625 C 70.338696 42.52965 70.064102 42.006424 69.626953 41.658203 C 69.224439 41.325435 68.712681 41.152344 68.167969 41.152344 C 67.545916 41.152344 66.726269 41.475466 65.865234 41.832031 L 73.804688 37.960938 z "
         id="path855" />
    </g>
  </g>
  <g
     aria-label="2"
     id="text908-8"
     style="font-style:normal;font-variant:normal;font-weight:normal;font-stretch:normal;font-size:53.3333px;line-height:0;font-family:'Times New Roman';-inkscape-font-specification:'Times New Roman, Normal';font-variant-ligatures:normal;font-variant-caps:normal;font-variant-numeric:normal;font-variant-east-asian:normal;fill:#000000;fill-opacity:1">
    <g
       id="g857"
       style="opacity:1;fill:#000000;fill-opacity:1">
      <path
         style="color:#000000;font-style:normal;font-variant:normal;font-weight:normal;font-stretch:normal;font-size:medium;line-height:0;font-family:'Times New Roman';-inkscape-font-specification:'Times New Roman, Normal';font-variant-ligatures:normal;font-variant-position:normal;font-variant-caps:normal;font-variant-numeric:normal;font-variant-alternates:normal;font-variant-east-asian:normal;font-feature-settings:normal;font-variation-settings:normal;text-indent:0;text-align:start;text-decoration:none;text-decoration-line:none;text-decoration-style:solid;text-decoration-color:#000000;letter-spacing:normal;word-spacing:normal;text-transform:none;writing-mode:lr-tb;direction:ltr;text-orientation:mixed;dominant-baseline:auto;baseline-shift:baseline;text-anchor:start;white-space:normal;shape-padding:0;shape-margin:0;inline-size:0;clip-rule:nonzero;display:inline;overflow:visible;visibility:visible;isolation:auto;mix-blend-mode:normal;color-interpolation:sRGB;color-interpolation-filters:linearRGB;solid-color:#000000;solid-opacity:1;vector-effect:none;fill:#000000;fill-opacity:1;fill-rule:nonzero;stroke-width:1;stroke-linecap:butt;stroke-linejoin:miter;stroke-miterlimit:4;stroke-dasharray:none;stroke-dashoffset:0;stroke-opacity:1;color-rendering:auto;image-rendering:auto;shape-rendering:auto;text-rendering:auto;enable-background:accumulate;stop-color:#000000;stop-opacity:1;stroke:none"
         d="m 314.68199,66.704838 -2.47395,6.796871 h -20.83333 v -0.963541 c 6.12847,-5.590275 10.44271,-10.156244 12.94271,-13.697909 2.49999,-3.541664 3.74999,-6.779509 3.74999,-9.713535 0,-2.239582 -0.68576,-4.079859 -2.05729,-5.520831 -1.37153,-1.440971 -3.01215,-2.161457 -4.92187,-2.161457 -1.73611,0 -3.29861,0.512153 -4.6875,1.536458 -1.37153,1.006944 -2.38715,2.491318 -3.04687,4.453122 h -0.96354 c 0.43403,-3.211803 1.54514,-5.67708 3.33333,-7.395829 1.80555,-1.718749 4.05382,-2.578123 6.74479,-2.578123 2.86458,0 5.25173,0.920138 7.16145,2.760415 1.92709,1.840277 2.89063,4.010414 2.89063,6.510413 0,1.788193 -0.41667,3.576387 -1.25,5.36458 -1.28473,2.812498 -3.36806,5.789927 -6.25,8.932286 -4.32291,4.722219 -7.02256,7.56944 -8.09895,8.541662 h 9.21874 c 1.875,0 3.18576,-0.06944 3.93229,-0.208334 0.76389,-0.138889 1.44965,-0.416666 2.05729,-0.833332 0.60764,-0.434028 1.13715,-1.041667 1.58854,-1.822916 z"
         id="path859" />
      <path
         style="color:#000000;font-style:normal;font-variant:normal;font-weight:normal;font-stretch:normal;font-size:medium;line-height:0;font-family:'Times New Roman';-inkscape-font-specification:'Times New Roman, Normal';font-variant-ligatures:normal;font-variant-position:normal;font-variant-caps:normal;font-variant-numeric:normal;font-variant-alternates:normal;font-variant-east-asian:normal;font-feature-settings:normal;font-variation-settings:normal;text-indent:0;text-align:start;text-decoration:none;text-decoration-line:none;text-decoration-style:solid;text-decoration-color:#000000;letter-spacing:normal;word-spacing:normal;text-transform:none;writing-mode:lr-tb;direction:ltr;text-orientation:mixed;dominant-baseline:auto;baseline-shift:baseline;text-anchor:start;white-space:normal;shape-padding:0;shape-margin:0;inline-size:0;clip-rule:nonzero;display:inline;overflow:visible;visibility:visible;isolation:auto;mix-blend-mode:normal;color-interpolation:sRGB;color-interpolation-filters:linearRGB;solid-color:#000000;solid-opacity:1;vector-effect:none;fill-opacity:1;fill-rule:nonzero;stroke-width:1;stroke-linecap:butt;stroke-linejoin:miter;stroke-miterlimit:4;stroke-dasharray:none;stroke-dashoffset:0;stroke-opacity:1;color-rendering:auto;image-rendering:auto;shape-rendering:auto;text-rendering:auto;enable-background:accumulate;stop-color:#000000;stop-opacity:1;stroke:none;fill:#000000"
         d="M 302.46875 36.960938 C 299.67133 36.960938 297.27431 37.871504 295.37891 39.675781 L 295.37891 39.677734 L 295.37695 39.677734 C 293.49115 41.490306 292.33918 44.076806 291.89453 47.367188 L 291.81836 47.933594 L 293.71289 47.933594 L 293.82812 47.59375 C 294.46272 45.70667 295.41977 44.322671 296.69727 43.384766 L 296.69727 43.382812 C 298.00607 42.417575 299.45012 41.945313 301.08789 41.945312 C 302.87185 41.945312 304.35681 42.594147 305.64844 43.951172 C 306.93078 45.298442 307.56836 46.989438 307.56836 49.126953 C 307.56836 51.918968 306.37068 55.064214 303.9082 58.552734 C 301.44773 62.038399 297.15175 66.590311 291.03711 72.167969 L 290.875 72.318359 L 290.875 74.001953 L 312.55859 74.001953 L 315.39648 66.205078 L 314.68164 66.205078 L 313.42969 66.205078 L 313.28516 66.455078 C 312.86338 67.185077 312.38195 67.731746 311.84375 68.117188 C 311.29623 68.491886 310.68117 68.742095 309.98242 68.869141 L 309.98047 68.869141 C 309.30795 68.994262 308.00328 69.070312 306.14062 69.070312 L 298.08203 69.070312 C 299.37954 67.823322 301.5027 65.610152 305.38867 61.365234 C 308.29582 58.195388 310.41041 55.179743 311.72461 52.302734 L 311.72461 52.306641 C 312.5849 50.460608 313.02148 48.596332 313.02148 46.730469 C 313.02148 44.102915 311.98405 41.77932 309.97656 39.861328 C 307.97689 37.934374 305.4404 36.960937 302.46875 36.960938 z M 302.46875 37.960938 C 305.22626 37.960938 307.46343 38.826479 309.2832 40.580078 L 309.2832 40.582031 L 309.28516 40.582031 C 311.13046 42.344206 312.02148 44.358943 312.02148 46.730469 C 312.02148 48.440992 311.62279 50.154412 310.81641 51.884766 L 310.81641 51.886719 L 310.81641 51.888672 C 309.56115 54.636659 307.50907 57.574581 304.65234 60.689453 C 300.33185 65.409033 297.61058 68.273731 296.58594 69.199219 L 295.62305 70.070312 L 306.14062 70.070312 C 308.02706 70.070312 309.3415 70.006014 310.16211 69.853516 C 310.98962 69.703059 311.74524 69.39673 312.41211 68.939453 L 312.41602 68.9375 L 312.41992 68.935547 C 313.0101 68.513993 313.49311 67.894384 313.93359 67.205078 L 313.96875 67.205078 L 311.85742 73.001953 L 291.875 73.001953 L 291.875 72.748047 C 297.91562 67.224942 302.21359 62.68895 304.72656 59.128906 C 307.26407 55.534098 308.56836 52.202991 308.56836 49.126953 C 308.56836 46.785304 307.83376 44.796392 306.37305 43.261719 C 304.92162 41.736801 303.12337 40.945313 301.08789 40.945312 C 299.25405 40.945313 297.57411 41.495454 296.10547 42.578125 C 294.73233 43.586254 293.73458 45.079145 293.04688 46.933594 L 293.04102 46.933594 C 293.5181 44.116925 294.49612 41.9115 296.07031 40.398438 C 297.78564 38.766517 299.88525 37.960938 302.46875 37.960938 z "
         id="path861" />
    </g>
  </g>
  <g
     aria-label="4"
     id="text908-88"
     style="font-style:normal;font-variant:normal;font-weight:normal;font-stretch:normal;font-size:53.3333px;line-height:0;font-family:'Times New Roman';-inkscape-font-specification:'Times New Roman, Normal';font-variant-ligatures:normal;font-variant-caps:normal;font-variant-numeric:normal;font-variant-east-asian:normal;fill:#000000;fill-opacity:1">
    <g
       id="g869"
       style="opacity:1;fill:#000000;fill-opacity:1">
      <path
         style="color:#000000;font-style:normal;font-variant:normal;font-weight:normal;font-stretch:normal;font-size:medium;line-height:0;font-family:'Times New Roman';-inkscape-font-specification:'Times New Roman, Normal';font-variant-ligatures:normal;font-variant-position:normal;font-variant-caps:normal;font-variant-numeric:normal;font-variant-alternates:normal;font-variant-east-asian:normal;font-feature-settings:normal;font-variation-settings:normal;text-indent:0;text-align:start;text-decoration:none;text-decoration-line:none;text-decoration-style:solid;text-decoration-color:#000000;letter-spacing:normal;word-spacing:normal;text-transform:none;writing-mode:lr-tb;direction:ltr;text-orientation:mixed;dominant-baseline:auto;baseline-shift:baseline;text-anchor:start;white-space:normal;shape-padding:0;shape-margin:0;inline-size:0;clip-rule:nonzero;display:inline;overflow:visible;visibility:visible;isolation:auto;mix-blend-mode:normal;color-interpolation:sRGB;color-interpolation-filters:linearRGB;solid-color:#000000;solid-opacity:1;vector-effect:none;fill:#000000;fill-opacity:1;fill-rule:nonzero;stroke-width:1;stroke-linecap:butt;stroke-linejoin:miter;stroke-miterlimit:4;stroke-dasharray:none;stroke-dashoffset:0;stroke-opacity:1;color-rendering:auto;image-rendering:auto;shape-rendering:auto;text-rendering:auto;enable-background:accumulate;stop-color:#000000;stop-opacity:1;stroke:none"
         d="m 84.040327,278.31249 v 3.69791 h -4.739581 v 9.32291 H 75.003874 V 282.0104 H 60.055966 v -3.33333 l 16.380199,-23.3854 h 2.864581 v 23.02082 z m -9.036453,0 v -17.52603 l -12.395826,17.52603 z"
         id="path871" />
      <path
         style="color:#000000;font-style:normal;font-variant:normal;font-weight:normal;font-stretch:normal;font-size:medium;line-height:0;font-family:'Times New Roman';-inkscape-font-specification:'Times New Roman, Normal';font-variant-ligatures:normal;font-variant-position:normal;font-variant-caps:normal;font-variant-numeric:normal;font-variant-alternates:normal;font-variant-east-asian:normal;font-feature-settings:normal;font-variation-settings:normal;text-indent:0;text-align:start;text-decoration:none;text-decoration-line:none;text-decoration-style:solid;text-decoration-color:#000000;letter-spacing:normal;word-spacing:normal;text-transform:none;writing-mode:lr-tb;direction:ltr;text-orientation:mixed;dominant-baseline:auto;baseline-shift:baseline;text-anchor:start;white-space:normal;shape-padding:0;shape-margin:0;inline-size:0;clip-rule:nonzero;display:inline;overflow:visible;visibility:visible;isolation:auto;mix-blend-mode:normal;color-interpolation:sRGB;color-interpolation-filters:linearRGB;solid-color:#000000;solid-opacity:1;vector-effect:none;fill-opacity:1;fill-rule:nonzero;stroke-width:1;stroke-linecap:butt;stroke-linejoin:miter;stroke-miterlimit:4;stroke-dasharray:none;stroke-dashoffset:0;stroke-opacity:1;color-rendering:auto;image-rendering:auto;shape-rendering:auto;text-rendering:auto;enable-background:accumulate;stop-color:#000000;stop-opacity:1;stroke:none;fill:#000000"
         d="M 76.175781 254.79102 L 59.556641 278.51953 L 59.556641 282.50977 L 74.503906 282.50977 L 74.503906 291.83398 L 79.800781 291.83398 L 79.800781 282.50977 L 84.541016 282.50977 L 84.541016 277.8125 L 84.041016 277.8125 L 79.800781 277.8125 L 79.800781 254.79102 L 76.175781 254.79102 z M 76.697266 255.79102 L 78.800781 255.79102 L 78.800781 278.8125 L 83.541016 278.8125 L 83.541016 281.50977 L 78.800781 281.50977 L 78.800781 290.83398 L 75.503906 290.83398 L 75.503906 281.50977 L 60.556641 281.50977 L 60.556641 278.83398 L 76.697266 255.79102 z M 75.503906 259.21289 L 61.642578 278.8125 L 75.503906 278.8125 L 75.503906 278.3125 L 75.503906 259.21289 z M 74.503906 262.35742 L 74.503906 277.8125 L 63.574219 277.8125 L 74.503906 262.35742 z "
         id="path873" />
    </g>
  </g>
  <text
     xml:space="preserve"
     style="font-style:normal;font-variant:normal;font-weight:normal;font-stretch:normal;font-size:53.3333px;line-height:0;font-family:'Times New Roman';-inkscape-font-specification:'Times New Roman, Normal';font-variant-ligatures:normal;font-variant-caps:normal;font-variant-numeric:normal;font-variant-east-asian:normal;white-space:pre;inline-size:6.12238;fill:#ffffff;fill-opacity:1"
     x="278.37112"
     y="284.02081"
     id="text908-8-1" />
  <g
     aria-label="3"
     id="text908-88-2"
     style="font-style:normal;font-variant:normal;font-weight:normal;font-stretch:normal;font-size:53.3333px;line-height:0;font-family:'Times New Roman';-inkscape-font-specification:'Times New Roman, Normal';font-variant-ligatures:normal;font-variant-caps:normal;font-variant-numeric:normal;font-variant-east-asian:normal;fill:#000000;fill-opacity:1">
    <g
       id="g863"
       style="opacity:1;fill:#000000;fill-opacity:1">
      <path
         style="color:#000000;font-style:normal;font-variant:normal;font-weight:normal;font-stretch:normal;font-size:medium;line-height:0;font-family:'Times New Roman';-inkscape-font-specification:'Times New Roman, Normal';font-variant-ligatures:normal;font-variant-position:normal;font-variant-caps:normal;font-variant-numeric:normal;font-variant-alternates:normal;font-variant-east-asian:normal;font-feature-settings:normal;font-variation-settings:normal;text-indent:0;text-align:start;text-decoration:none;text-decoration-line:none;text-decoration-style:solid;text-decoration-color:#000000;letter-spacing:normal;word-spacing:normal;text-transform:none;writing-mode:lr-tb;direction:ltr;text-orientation:mixed;dominant-baseline:auto;baseline-shift:baseline;text-anchor:start;white-space:normal;shape-padding:0;shape-margin:0;inline-size:0;clip-rule:nonzero;display:inline;overflow:visible;visibility:visible;isolation:auto;mix-blend-mode:normal;color-interpolation:sRGB;color-interpolation-filters:linearRGB;solid-color:#000000;solid-opacity:1;vector-effect:none;fill:#000000;fill-opacity:1;fill-rule:nonzero;stroke-width:1;stroke-linecap:butt;stroke-linejoin:miter;stroke-miterlimit:4;stroke-dasharray:none;stroke-dashoffset:0;stroke-opacity:1;color-rendering:auto;image-rendering:auto;shape-rendering:auto;text-rendering:auto;enable-background:accumulate;stop-color:#000000;stop-opacity:1;stroke:none"
         d="m 293.53618,262.42708 c 1.00695,-2.37847 2.27431,-4.21007 3.80208,-5.49479 1.54514,-1.30208 3.46354,-1.95312 5.75521,-1.95312 2.82986,0 5,0.92014 6.51041,2.76041 1.14583,1.37153 1.71875,2.83854 1.71875,4.40104 0,2.56945 -1.61458,5.2257 -4.84375,7.96875 2.17014,0.85069 3.81076,2.06597 4.92187,3.64583 1.11111,1.57986 1.66667,3.4375 1.66667,5.57291 0,3.05555 -0.97222,5.70312 -2.91666,7.94271 -2.53473,2.91666 -6.2066,4.37499 -11.01562,4.37499 -2.37847,0 -4.00174,-0.29514 -4.86979,-0.88541 -0.85069,-0.59028 -1.27604,-1.22396 -1.27604,-1.90104 0,-0.50347 0.19965,-0.94618 0.59896,-1.32813 0.41666,-0.38194 0.91145,-0.57291 1.48437,-0.57291 0.43403,0 0.87673,0.0694 1.32812,0.20833 0.29514,0.0868 0.96354,0.40799 2.00521,0.96354 1.04167,0.53819 1.76215,0.85937 2.16146,0.96354 0.64236,0.19097 1.32812,0.28646 2.05729,0.28646 1.77083,0 3.30729,-0.68576 4.60937,-2.05729 1.31945,-1.37153 1.97917,-2.99479 1.97917,-4.86979 0,-1.37153 -0.30382,-2.70833 -0.91146,-4.01041 -0.45139,-0.97223 -0.94618,-1.71007 -1.48438,-2.21354 -0.74653,-0.69445 -1.77083,-1.31945 -3.07291,-1.875 -1.30208,-0.57292 -2.6302,-0.85938 -3.98437,-0.85938 h -0.83334 v -0.78125 c 1.37153,-0.17361 2.74305,-0.6684 4.11458,-1.48437 1.38889,-0.81597 2.39584,-1.79688 3.02084,-2.94271 0.625,-1.14583 0.9375,-2.40451 0.9375,-3.77604 0,-1.78819 -0.56424,-3.22916 -1.69271,-4.32291 -1.11111,-1.11111 -2.5,-1.66667 -4.16667,-1.66667 -2.69097,0 -4.93923,1.44097 -6.74478,4.32292 z"
         id="path865" />
      <path
         style="color:#000000;font-style:normal;font-variant:normal;font-weight:normal;font-stretch:normal;font-size:medium;line-height:0;font-family:'Times New Roman';-inkscape-font-specification:'Times New Roman, Normal';font-variant-ligatures:normal;font-variant-position:normal;font-variant-caps:normal;font-variant-numeric:normal;font-variant-alternates:normal;font-variant-east-asian:normal;font-feature-settings:normal;font-variation-settings:normal;text-indent:0;text-align:start;text-decoration:none;text-decoration-line:none;text-decoration-style:solid;text-decoration-color:#000000;letter-spacing:normal;word-spacing:normal;text-transform:none;writing-mode:lr-tb;direction:ltr;text-orientation:mixed;dominant-baseline:auto;baseline-shift:baseline;text-anchor:start;white-space:normal;shape-padding:0;shape-margin:0;inline-size:0;clip-rule:nonzero;display:inline;overflow:visible;visibility:visible;isolation:auto;mix-blend-mode:normal;color-interpolation:sRGB;color-interpolation-filters:linearRGB;solid-color:#000000;solid-opacity:1;vector-effect:none;fill-opacity:1;fill-rule:nonzero;stroke-width:1;stroke-linecap:butt;stroke-linejoin:miter;stroke-miterlimit:4;stroke-dasharray:none;stroke-dashoffset:0;stroke-opacity:1;color-rendering:auto;image-rendering:auto;shape-rendering:auto;text-rendering:auto;enable-background:accumulate;stop-color:#000000;stop-opacity:1;stroke:none;fill:#000000"
         d="M 303.09375 254.47852 C 300.70739 254.47852 298.65391 255.17021 297.01562 256.55078 C 295.41342 257.89845 294.10568 259.80065 293.07617 262.23242 L 292.89062 262.66992 L 293.31836 262.87695 L 294.58203 263.49023 L 294.81836 263.10938 C 296.56458 260.32213 298.62815 259.02148 301.14062 259.02148 C 302.69618 259.02148 303.9304 259.51829 304.95312 260.54102 L 304.95703 260.54297 L 304.95898 260.54688 C 305.98967 261.54585 306.5 262.82675 306.5 264.50977 C 306.5 265.80534 306.20789 266.97467 305.62305 268.04688 C 305.04871 269.09982 304.11806 270.01804 302.78906 270.79883 L 302.78711 270.79883 L 302.78516 270.79883 C 301.46318 271.58532 300.15859 272.05284 298.86328 272.2168 L 298.42773 272.27344 L 298.42773 273.99414 L 299.75977 273.99414 C 301.04342 273.99414 302.29937 274.26531 303.54297 274.8125 L 303.54492 274.8125 L 303.54883 274.81445 C 304.81347 275.35403 305.7875 275.95471 306.47656 276.5957 C 306.94812 277.03715 307.41464 277.71967 307.84766 278.65234 L 307.84766 278.6543 L 307.84961 278.6543 C 308.4288 279.89541 308.71289 281.15544 308.71289 282.45312 C 308.71289 284.21084 308.11357 285.68707 306.87305 286.97656 L 306.87109 286.97852 C 305.64694 288.26796 304.26675 288.88086 302.625 288.88086 C 301.93948 288.88086 301.30181 288.79148 300.70898 288.61523 L 300.70117 288.61133 L 300.69336 288.60938 C 300.39573 288.53173 299.66581 288.21875 298.64062 287.68945 L 298.63477 287.68555 C 297.59374 287.13044 296.96501 286.81313 296.54688 286.68945 C 296.05244 286.53732 295.55962 286.45898 295.07227 286.45898 C 294.38824 286.45898 293.75081 286.70303 293.25 287.16211 L 293.24609 287.16602 L 293.24219 287.16992 C 292.76358 287.62772 292.49023 288.22372 292.49023 288.85938 C 292.49023 289.74586 293.05621 290.53055 293.98047 291.17188 L 293.98242 291.17188 L 293.98438 291.17383 C 295.02802 291.8835 296.71493 292.14648 299.13477 292.14648 C 304.04487 292.14648 307.88992 290.63444 310.52734 287.59961 L 310.52734 287.59766 C 312.54558 285.27307 313.56836 282.48974 313.56836 279.32812 C 313.56836 277.10599 312.98264 275.13336 311.81055 273.4668 C 310.75493 271.96584 309.18582 270.83422 307.26562 269.97266 C 310.16876 267.35425 311.82227 264.74756 311.82227 262.14062 C 311.82227 260.45675 311.19477 258.86452 309.99023 257.42188 L 309.98828 257.41992 C 308.38076 255.46273 306.0309 254.47852 303.09375 254.47852 z M 303.09375 255.47852 C 305.81523 255.47852 307.80354 256.33474 309.2168 258.05664 L 309.21875 258.05859 L 309.2207 258.06055 C 310.30664 259.36038 310.82227 260.70035 310.82227 262.14062 C 310.82227 264.50061 309.32475 267.03533 306.1543 269.72852 L 305.51758 270.26953 L 306.29688 270.57422 C 308.39609 271.39711 309.9449 272.55386 310.99219 274.04297 C 312.04232 275.53612 312.56836 277.27943 312.56836 279.32812 C 312.56836 282.27762 311.64408 284.78877 309.77344 286.94336 C 307.34141 289.74185 303.8427 291.14648 299.13477 291.14648 C 296.80051 291.14648 295.24451 290.81956 294.55078 290.34961 C 293.77365 289.81038 293.49023 289.32705 293.49023 288.85938 C 293.49023 288.49023 293.61572 288.20257 293.93164 287.89844 C 294.26268 287.59684 294.61277 287.45898 295.07227 287.45898 C 295.45296 287.45898 295.84557 287.51889 296.25391 287.64453 L 296.25586 287.64453 L 296.25977 287.64648 C 296.43066 287.69675 297.13602 288.02085 298.16992 288.57227 L 298.17383 288.57227 L 298.17578 288.57422 C 299.22183 289.11468 299.92625 289.44004 300.42578 289.57227 C 300.42699 289.57262 300.42848 289.57191 300.42969 289.57227 C 301.12053 289.77725 301.85353 289.88086 302.625 289.88086 C 304.52347 289.88086 306.21432 289.12136 307.59375 287.66992 C 308.99212 286.21636 309.71289 284.44541 309.71289 282.45312 C 309.71289 281.00839 309.39139 279.59491 308.75586 278.23242 L 308.75586 278.23047 C 308.2866 277.22012 307.76239 276.42848 307.1582 275.86328 C 306.35514 275.11625 305.28268 274.46753 303.94531 273.89648 C 302.58475 273.29783 301.18445 272.99414 299.75977 272.99414 L 299.58594 272.99414 C 300.83029 272.75588 302.07121 272.38788 303.29492 271.66016 L 303.29688 271.6582 C 304.7444 270.80731 305.82668 269.76339 306.50195 268.52539 C 307.16711 267.30593 307.5 265.95724 307.5 264.50977 C 307.5 262.61804 306.88039 261.02024 305.65625 259.83203 C 304.4572 258.63463 302.91683 258.02148 301.14062 258.02148 C 298.40286 258.02148 296.07693 259.49938 294.24805 262.2168 L 294.2207 262.20312 C 295.16853 260.10819 296.3062 258.45301 297.66016 257.31445 C 299.11215 256.09087 300.89678 255.47852 303.09375 255.47852 z "
         id="path867" />
    </g>
  </g>
</svg>
